<svg xmlns="http://www.w3.org/2000/svg" viewBox="0 0 16 16" id="tripadvisor"><path fill="#37474F" d="M16 4h-2.82A7.855 7.855 0 0 0 2.82 4H0s.64.78.9 1.51C.34 6.19 0 7.05 0 8c0 2.21 1.79 4 4 4 1.31 0 2.47-.64 3.2-1.62L8.04 12l.77-1.61C9.54 11.36 10.69 12 12 12c2.21 0 4-1.79 4-4 0-.95-.34-1.81-.9-2.49.26-.73.9-1.51.9-1.51zM4 11c-1.65 0-3-1.35-3-3s1.35-3 3-3 3 1.35 3 3-1.35 3-3 3zm4-3c0-2.05-1.56-3.73-3.56-3.96a6.896 6.896 0 0 1 7.12 0C9.56 4.27 8 5.95 8 8zm4 3c-1.65 0-3-1.35-3-3s1.35-3 3-3 3 1.35 3 3-1.35 3-3 3z"></path><path fill="#FFEB3B" d="M11.56 4.04C9.56 4.27 8 5.95 8 8c0-2.05-1.56-3.73-3.56-3.96a6.896 6.896 0 0 1 7.12 0z"></path><path fill="#37474F" d="M4 10c-1.103 0-2-.897-2-2s.897-2 2-2 2 .897 2 2-.897 2-2 2zm0-3c-.551 0-1 .449-1 1s.449 1 1 1 1-.449 1-1-.449-1-1-1zM12 10c-1.103 0-2-.897-2-2s.897-2 2-2 2 .897 2 2-.897 2-2 2zm0-3a1.001 1.001 0 0 0 0 2 1.001 1.001 0 0 0 0-2z"></path><circle cx="4" cy="8" r=".5" fill="#F44336"></circle><circle cx="12" cy="8" r=".5" fill="#4CAF50"></circle></svg>